<?xml version="1.0" encoding="UTF-8"?><svg id="uuid-37c3bd4f-56ee-4928-90cd-d1df7c075562" xmlns="http://www.w3.org/2000/svg" xmlns:xlink="http://www.w3.org/1999/xlink" viewBox="0 0 843.92 295.49"><defs><style>.uuid-6d2d9b5c-f7b6-4f09-81d9-fee9b8aef150{fill:url(#uuid-b00b3e88-2b77-4459-9243-4ebca58428f6);}.uuid-e3783097-a432-4c6b-92b0-a56d5bac0f59{fill:url(#uuid-d26d757a-21d1-49aa-92bd-5c9fcca435b2);}</style><linearGradient id="uuid-d26d757a-21d1-49aa-92bd-5c9fcca435b2" x1="344.15" y1="255.94" x2="680.85" y2="61.54" gradientUnits="userSpaceOnUse"><stop offset=".6" stop-color="#002033"/><stop offset="1" stop-color="#015080"/></linearGradient><linearGradient id="uuid-b00b3e88-2b77-4459-9243-4ebca58428f6" x1="23.47" y1="129.92" x2="828.25" y2="129.92" gradientUnits="userSpaceOnUse"><stop offset=".17" stop-color="#017ac3"/><stop offset=".26" stop-color="#077dc4"/><stop offset=".37" stop-color="#1886c8"/><stop offset=".5" stop-color="#3495cf"/><stop offset=".64" stop-color="#5caad9"/><stop offset=".8" stop-color="#8fc6e6"/><stop offset=".96" stop-color="#cce6f5"/><stop offset="1" stop-color="#def0fa"/></linearGradient></defs><path class="uuid-e3783097-a432-4c6b-92b0-a56d5bac0f59" d="M445.84,102.65c-5.34-.57-10.13-1.02-14.38-1.36-4.26-.34-7.92-.51-10.98-.51h-100.44v113.38h113.21c11.58,0,20.74-2.95,27.49-8.85,6.75-5.9,10.35-14.02,10.81-24.34.23-6.81.43-12.82.6-18.04.17-5.22.26-9.59.26-13.11,0-14.87-2.38-26.24-7.15-34.13-4.77-7.89-11.24-12.23-19.41-13.02ZM436.65,172.37c-.68,3.91-1.93,6.92-3.75,9.02-1.82,2.1-4.31,3.49-7.49,4.17-3.18.68-7.26,1.02-12.26,1.02h-58.22v-58.22h62.65c4.31,0,7.77.57,10.38,1.7,2.61,1.14,4.65,2.84,6.13,5.11,1.47,2.27,2.44,5.22,2.89,8.85.45,3.63.68,7.89.68,12.77,0,6.47-.34,11.66-1.02,15.58ZM588.48,132.18c-5.13-2.44-11.72-4-19.78-4.67-8.06-.67-17.82-1.01-29.3-1.01-9.4,0-17.4.31-23.99.92-6.59.61-12.09,1.65-16.48,3.11-4.39,1.46-7.81,3.45-10.25,5.95-2.44,2.5-4.27,5.62-5.49,9.34-1.22,3.72-1.95,8.18-2.2,13.37-.25,5.19-.37,11.14-.37,17.85,0,9.04,1.07,16.11,3.2,21.24,2.13,5.13,5.52,9,10.16,11.63,4.64,2.63,10.68,4.27,18.13,4.94,7.44.67,16.48,1.01,27.1,1.01s18.95-.25,26.09-.73c7.14-.49,13.09-1.43,17.85-2.84,4.76-1.4,8.48-3.35,11.17-5.86,2.68-2.5,4.67-5.71,5.95-9.61,1.28-3.91,2.07-8.61,2.38-14.1.3-5.49.46-12.02.46-19.59,0-8.42-1.16-15.07-3.48-19.96-2.32-4.88-6.04-8.54-11.17-10.99ZM570.44,181.89c-.55,2.87-1.83,5.1-3.85,6.68-2.01,1.59-4.97,2.63-8.88,3.11-3.91.49-9.28.73-16.11.73-5.98,0-10.87-.18-14.65-.55-3.78-.37-6.75-1.22-8.88-2.56-2.14-1.34-3.6-3.42-4.39-6.23-.8-2.81-1.19-6.65-1.19-11.54,0-4.39.37-7.99,1.1-10.8.73-2.81,2.11-5,4.12-6.59,2.01-1.59,4.88-2.68,8.61-3.3,3.72-.61,8.63-.92,14.74-.92,7.08,0,12.63.34,16.66,1.01,4.03.67,7.05,1.77,9.06,3.3,2.01,1.53,3.26,3.6,3.75,6.22.49,2.63.73,5.95.73,9.98,0,4.76-.27,8.58-.82,11.44ZM731.43,179.05c0,7.69-1.01,13.95-3.02,18.77-2.01,4.82-5.43,8.58-10.25,11.26-4.82,2.69-11.29,4.49-19.41,5.4-8.12.92-18.28,1.37-30.49,1.37-10.62,0-19.5-.61-26.64-1.83-7.14-1.22-12.85-3.51-17.12-6.87-4.27-3.36-7.32-7.99-9.16-13.92-1.83-5.92-2.75-13.52-2.75-22.8,0-9.76,1.13-17.55,3.39-23.35,2.26-5.8,5.95-10.19,11.08-13.18,5.13-2.99,11.75-4.94,19.87-5.86,8.12-.92,18.04-1.37,29.76-1.37,10.62,0,19.41.49,26.37,1.46,6.96.98,12.51,2.81,16.66,5.49,4.15,2.69,7.02,6.32,8.61,10.9,1.59,4.58,2.38,10.41,2.38,17.49h-31.86c-.37-2.32-.95-4.18-1.74-5.58-.8-1.4-2.08-2.53-3.85-3.39-1.77-.85-4.24-1.43-7.42-1.74-3.18-.3-7.32-.46-12.45-.46-5.74,0-10.47.27-14.19.82-3.73.55-6.68,1.56-8.88,3.02-2.2,1.46-3.73,3.51-4.58,6.14-.86,2.63-1.28,6.07-1.28,10.34,0,4.76.55,8.52,1.65,11.26,1.1,2.75,2.81,4.79,5.13,6.14,2.32,1.34,5.31,2.2,8.97,2.56,3.66.37,8.06.55,13.18.55,8.79,0,15.29-.76,19.5-2.29,4.21-1.52,6.32-4.24,6.32-8.15v-2.2h32.23Z"/><path class="uuid-6d2d9b5c-f7b6-4f09-81d9-fee9b8aef150" d="M120.73,128.26H41.88v-27.47h136v6.32s-50.55,18.13-57.15,21.16ZM724.41,53.58c-12.12-2.06-24.94-3.56-38.78-4.66-35.07-3.36-75.22-4.32-118.92-2.72-157.67,2.07-316.2,44.26-378.4,63.76-51.47,17.17-98.05,37.99-128.76,60.04-23.63,16.97-36.08,35.14-36.08,44.25h157.43v-27.47h-109.07c23.69-19.06,61.68-38.3,108.43-55.36l46.18,52.76v30.22h32.86v-30.22l48.3-55.92h-35.93l-28.93,35.52-29.19-35.52h-24.48c10.75-3.77,21.91-7.43,33.45-10.94,109.66-33.37,250.25-55.6,356.12-55.6,126.8,0,187.96,19.61,210.77,36.91,5.46,5.79,9.34,11.63,10.69,19.15.81,4.52,1.47,33.08-35.04,58.63-4.42,3.02-9.08,5.95-13.97,8.73l2.76-.07c8.61-4.4,17.3-9.2,25.71-14.25,24.49-14.91,64.43-43.87,42.17-74.92-11.18-14.52-29.55-21.9-46.52-29.48-13.96-5.08-30.85-9.45-50.81-12.84Z"/></svg>